<svg xmlns="http://www.w3.org/2000/svg" version="1.1" xmlns:xlink="http://www.w3.org/1999/xlink" xmlns:svgjs="http://svgjs.dev/svgjs" width="2000" height="2250" viewBox="0 0 2000 2250"><g transform="matrix(1,0,0,1,0,0)"><svg viewBox="0 0 320 360" data-background-color="#0d0d0d" preserveAspectRatio="xMidYMid meet" height="2250" width="2000" xmlns="http://www.w3.org/2000/svg" xmlns:xlink="http://www.w3.org/1999/xlink"><g id="tight-bounds" transform="matrix(1,0,0,1,0,0)"><svg viewBox="0 0 320 360" height="360" width="320"><g><svg></svg></g><g><svg viewBox="0 0 320 360" height="360" width="320"><g><path xmlns="http://www.w3.org/2000/svg" d="M160 42.18c72.417 0 131.943 56.114 137.63 127.014h22.37c-1.137-17.82-5.308-34.882-12.133-51.185-7.962-18.957-19.716-36.398-34.502-50.805-14.787-14.787-31.848-26.161-50.806-34.503-20.095-8.341-40.948-12.891-62.559-12.891-21.611 0-42.464 4.171-62.559 12.512-18.957 7.962-36.398 19.716-50.806 34.503-14.787 14.787-26.161 31.848-34.502 50.805-6.825 16.303-10.995 33.744-12.133 51.185h22.37c5.687-70.521 65.213-126.635 137.63-126.635zM160 318.199c-72.417 0-131.943-56.114-137.63-127.014h-22.37c1.137 17.82 5.308 34.882 12.133 51.185 7.962 18.957 19.716 36.398 34.502 50.805 14.787 14.787 31.848 26.161 50.806 34.503 19.716 8.341 40.569 12.512 62.559 12.512 21.991 0 42.464-4.171 62.559-12.512 18.957-7.962 36.398-19.716 50.806-34.503 14.787-14.787 26.161-31.848 34.502-50.805 6.825-16.303 10.995-33.744 12.133-51.185h-22.37c-5.687 70.9-65.213 127.014-137.63 127.014z" fill="#4e2816" fill-rule="nonzero" stroke="none" stroke-width="1" stroke-linecap="butt" stroke-linejoin="miter" stroke-miterlimit="10" stroke-dasharray="" stroke-dashoffset="0" font-family="none" font-weight="none" font-size="none" text-anchor="none" style="mix-blend-mode: normal" data-fill-palette-color="tertiary"></path></g><g transform="matrix(1,0,0,1,56,123.18146718146718)"><svg viewBox="0 0 208 113.63706563706562" height="113.63706563706562" width="208"><g><svg viewBox="0 0 208 113.63706563706562" height="113.63706563706562" width="208"><g><svg viewBox="0 0 208 113.63706563706562" height="113.63706563706562" width="208"><g><svg viewBox="0 0 208 113.63706563706562" height="113.63706563706562" width="208"><g id="textblocktransform"><svg viewBox="0 0 208 113.63706563706562" height="113.63706563706562" width="208" id="textblock"><g><svg viewBox="0 0 208 113.63706563706562" height="113.63706563706562" width="208"><g transform="matrix(1,0,0,1,0,0)"><svg width="208" viewBox="1.7000000476837158 -36.5 77.70000457763672 42.45000076293945" height="113.63706563706562" data-palette-color="#4e2816"><path d="M30.25 5.95L30.25 5.95 14.5 5.95Q7.95 5.95 4.83 2.55 1.7-0.85 1.7-6.25L1.7-6.25 1.7-20.35Q1.7-23.1 2.5-25.1 3.3-27.1 4.85-28.45L4.85-28.45 11.3-33.9Q12.85-35.2 15.28-35.85 17.7-36.5 20.95-36.5L20.95-36.5 33.45-36.5Q34.65-36.5 35.2-35.95 35.75-35.4 35.75-34.2L35.75-34.2 35.75-28.15Q35.75-27.5 35.58-27.05 35.4-26.6 35.05-26.3L35.05-26.3 28.55-20.9Q28.35-20.7 27.93-20.55 27.5-20.4 27-20.4L27-20.4 20.5-20.4 20.5-13.2Q20.55-13.3 20.68-13.43 20.8-13.55 20.9-13.65L20.9-13.65 27.35-19.1Q27.6-19.3 28.03-19.43 28.45-19.55 28.95-19.55L28.95-19.55 36.7-19.55Q37.9-19.55 38.45-19 39-18.45 39-17.25L39-17.25 39-1.8Q39-1.15 38.83-0.7 38.65-0.25 38.3 0.05L38.3 0.05 31.8 5.45Q31.6 5.65 31.18 5.8 30.75 5.95 30.25 5.95ZM20.95 0L36.7 0Q37.65 0 38.08-0.43 38.5-0.85 38.5-1.8L38.5-1.8 38.5-17.25Q38.5-18.2 38.08-18.63 37.65-19.05 36.7-19.05L36.7-19.05 28.95-19.05Q28-19.05 27.58-18.63 27.15-18.2 27.15-17.25L27.15-17.25 27.15-9.45 22.3-9.45Q21.15-9.45 20.58-10.05 20-10.65 20-11.9L20-11.9 20-23.85Q20-25.1 20.75-25.73 21.5-26.35 23.05-26.35L23.05-26.35 33.45-26.35Q34.4-26.35 34.83-26.78 35.25-27.2 35.25-28.15L35.25-28.15 35.25-34.2Q35.25-35.15 34.83-35.58 34.4-36 33.45-36L33.45-36 20.95-36Q14.7-36 11.68-33.5 8.65-31 8.65-25.8L8.65-25.8 8.65-10.2Q8.65-5 11.68-2.5 14.7 0 20.95 0L20.95 0ZM33.05-4.5L23.1-4.5Q20.35-4.5 18.6-4.85 16.85-5.2 15.85-5.98 14.85-6.75 14.48-7.98 14.1-9.2 14.1-10.95L14.1-10.95 14.1-24.95Q14.1-28.5 15.7-30 17.3-31.5 22.1-31.5L22.1-31.5 30.75-31.5 30.75-31 22.1-31Q17.7-31 16.15-29.63 14.6-28.25 14.6-24.95L14.6-24.95 14.6-10.95Q14.6-7.7 16.32-6.35 18.05-5 23.1-5L23.1-5 32.55-5 32.55-14.55 33.05-14.55 33.05-4.5ZM70.65 5.95L70.65 5.95 54.9 5.95Q48.35 5.95 45.22 2.55 42.1-0.85 42.1-6.25L42.1-6.25 42.1-20.35Q42.1-23.1 42.9-25.1 43.7-27.1 45.25-28.45L45.25-28.45 51.7-33.9Q53.25-35.2 55.67-35.85 58.1-36.5 61.35-36.5L61.35-36.5 73.85-36.5Q75.05-36.5 75.6-35.95 76.15-35.4 76.15-34.2L76.15-34.2 76.15-28.15Q76.15-27.5 75.97-27.05 75.8-26.6 75.45-26.3L75.45-26.3 68.95-20.9Q68.75-20.7 68.32-20.55 67.9-20.4 67.4-20.4L67.4-20.4 60.9-20.4 60.9-13.2Q60.95-13.3 61.07-13.43 61.2-13.55 61.3-13.65L61.3-13.65 67.75-19.1Q68-19.3 68.42-19.43 68.85-19.55 69.35-19.55L69.35-19.55 77.1-19.55Q78.3-19.55 78.85-19 79.4-18.45 79.4-17.25L79.4-17.25 79.4-1.8Q79.4-1.15 79.22-0.7 79.05-0.25 78.7 0.05L78.7 0.05 72.2 5.45Q72 5.65 71.57 5.8 71.15 5.95 70.65 5.95ZM61.35 0L77.1 0Q78.05 0 78.47-0.43 78.9-0.85 78.9-1.8L78.9-1.8 78.9-17.25Q78.9-18.2 78.47-18.63 78.05-19.05 77.1-19.05L77.1-19.05 69.35-19.05Q68.4-19.05 67.97-18.63 67.55-18.2 67.55-17.25L67.55-17.25 67.55-9.45 62.7-9.45Q61.55-9.45 60.97-10.05 60.4-10.65 60.4-11.9L60.4-11.9 60.4-23.85Q60.4-25.1 61.15-25.73 61.9-26.35 63.45-26.35L63.45-26.35 73.85-26.35Q74.8-26.35 75.22-26.78 75.65-27.2 75.65-28.15L75.65-28.15 75.65-34.2Q75.65-35.15 75.22-35.58 74.8-36 73.85-36L73.85-36 61.35-36Q55.1-36 52.07-33.5 49.05-31 49.05-25.8L49.05-25.8 49.05-10.2Q49.05-5 52.07-2.5 55.1 0 61.35 0L61.35 0ZM73.45-4.5L63.5-4.5Q60.75-4.5 59-4.85 57.25-5.2 56.25-5.98 55.25-6.75 54.87-7.98 54.5-9.2 54.5-10.95L54.5-10.95 54.5-24.95Q54.5-28.5 56.1-30 57.7-31.5 62.5-31.5L62.5-31.5 71.15-31.5 71.15-31 62.5-31Q58.1-31 56.55-29.63 55-28.25 55-24.95L55-24.95 55-10.95Q55-7.7 56.72-6.35 58.45-5 63.5-5L63.5-5 72.95-5 72.95-14.55 73.45-14.55 73.45-4.5Z" opacity="1" transform="matrix(1,0,0,1,0,0)" fill="#4e2816" class="undefined-text-0" data-fill-palette-color="primary" id="text-0"></path></svg></g></svg></g></svg></g></svg></g></svg></g></svg></g></svg></g></svg></g><defs></defs></svg><rect width="320" height="360" fill="none" stroke="none" visibility="hidden"></rect></g></svg></g></svg>